<svg width="512" height="512" viewBox="0 0 512 512" fill="none" xmlns="http://www.w3.org/2000/svg">
<path fill-rule="evenodd" clip-rule="evenodd" d="M0 70C0 31.3401 31.3401 0 70 0H442C480.66 0 512 31.3401 512 70V442C512 480.66 480.66 512 442 512H70C31.3401 512 0 480.66 0 442V70ZM416.059 393.098L373.438 436.849C369.589 440.801 363.267 440.889 359.309 437.046L297.034 376.588C295.095 374.705 294 372.117 294 369.413V142.198C294 139.458 295.124 136.838 297.109 134.951L359.402 75.7219C363.335 71.9829 369.532 72.0623 373.367 75.9009L415.879 118.45C419.803 122.377 419.777 128.749 415.821 132.644L381.777 166.159C379.867 168.038 378.792 170.606 378.792 173.285V338.264C378.792 340.944 379.867 343.511 381.777 345.391L415.911 378.994C419.832 382.854 419.898 389.157 416.059 393.098ZM138.571 435.878L95.9695 392.263C92.1175 388.319 92.1835 382.002 96.1173 378.14L130.214 344.663C132.129 342.783 133.208 340.211 133.208 337.527V173.026C133.208 170.342 132.129 167.77 130.214 165.89L96.2079 132.502C92.2389 128.606 92.2125 122.219 96.1492 118.289L138.642 75.8733C142.475 72.0471 148.658 71.9679 152.588 75.6946L214.881 134.766C216.872 136.654 218 139.278 218 142.022V368.593C218 371.301 216.902 373.893 214.956 375.777L152.681 436.074C148.725 439.904 142.418 439.816 138.571 435.878Z" fill="#00768E"/>
</svg>
